<svg width="520" height="455" viewBox="0 0 520 455" fill="none" xmlns="http://www.w3.org/2000/svg">
<g clip-path="url(#clip0)">
<path d="M409.496 32.0228H348.882V67.9359H409.496V32.0228Z" fill="#2F2E41"/>
<path d="M288.833 37.8135H257.582V26.9088C257.582 22.7619 259.228 18.7849 262.158 15.8526C265.089 12.9203 269.063 11.2729 273.207 11.2729C277.351 11.2729 281.326 12.9203 284.256 15.8526C287.186 18.7849 288.833 22.7619 288.833 26.9088V37.8135ZM258.273 37.1212H288.141V26.9088C288.141 22.9455 286.567 19.1446 283.767 16.3421C280.966 13.5397 277.168 11.9653 273.207 11.9653C269.246 11.9653 265.448 13.5397 262.647 16.3421C259.847 19.1446 258.273 22.9455 258.273 26.9088V37.1212Z" fill="#3F3D56"/>
<path d="M304.285 36.3138V32.0521L224.81 34.1829L222.294 142.13L234.057 156.669L304.285 36.3138Z" fill="#3F3D56"/>
<path d="M318.354 34.8134L232.212 36.7751L234.057 156.669L317.188 147.703L318.354 34.8134Z" fill="#55495F"/>
<path d="M391.593 423.261H381.815L377.164 385.521H391.594L391.593 423.261Z" fill="#FFB6B6"/>
<path d="M394.086 432.745L362.558 432.744V432.345C362.559 429.088 363.852 425.965 366.153 423.662C368.454 421.359 371.575 420.066 374.83 420.065H374.831L394.087 420.066L394.086 432.745Z" fill="#2F2E41"/>
<path d="M355.703 423.261H345.925L341.274 385.521H355.705L355.703 423.261Z" fill="#FFB6B6"/>
<path d="M358.197 432.745L326.669 432.744V432.345C326.669 429.088 327.962 425.965 330.263 423.662C332.565 421.359 335.686 420.066 338.94 420.065H338.941L358.197 420.066L358.197 432.745Z" fill="#2F2E41"/>
<path d="M326.988 186.955C326.988 186.955 312.702 217.741 325.608 279.707C338.514 341.674 338.621 409.704 338.621 409.704L358.355 410.026L369.441 263.564L375.245 407.958H394.688L411.823 265.846C411.823 265.846 423.098 202.389 397.954 191.027L326.988 186.955Z" fill="#2F2E41"/>
<path d="M395.37 78.3108L352.16 74.3252C338.61 84.2081 331.005 101.958 332.566 120.273C334.683 145.105 333.967 179.278 316.981 194.124C316.981 194.124 363.278 230.688 404.404 195.999C404.404 195.999 390.341 158.3 399.996 143.245C409.651 128.19 413.135 85.8925 395.37 78.3108Z" fill="#E4E4E4"/>
<path d="M266.801 16.9524C266.668 18.1988 266.81 19.4591 267.217 20.6445C267.624 21.8299 268.286 22.9116 269.156 23.8134C270.026 24.7152 271.082 25.4152 272.252 25.8641C273.421 26.313 274.675 26.4999 275.924 26.4115L332.975 79.6888L343.201 64.1026L283.906 16.6338C283.619 14.5433 282.575 12.6309 280.972 11.259C279.37 9.88718 277.32 9.15115 275.212 9.19043C273.103 9.22971 271.083 10.0416 269.532 11.4722C267.982 12.9027 267.01 14.8527 266.801 16.9524Z" fill="#FFB6B6"/>
<path d="M322.322 71.4585L335.856 57.5467C336.241 57.1509 336.707 56.8428 337.222 56.6433C337.737 56.4439 338.288 56.3578 338.839 56.391C339.39 56.4242 339.928 56.5758 340.415 56.8355C340.902 57.0953 341.328 57.4571 341.663 57.8962L353.396 73.2851C355.409 75.2682 356.553 77.9688 356.579 80.7949C356.604 83.6211 355.509 86.3421 353.533 88.3614C351.557 90.3807 348.861 91.5336 346.037 91.5672C343.213 91.6009 340.491 90.5126 338.467 88.541L322.827 77.2576C322.379 76.9344 322.006 76.5184 321.734 76.038C321.461 75.5576 321.295 75.0241 321.247 74.4738C321.199 73.9234 321.271 73.3692 321.456 72.8489C321.641 72.3286 321.937 71.8543 322.322 71.4585V71.4585Z" fill="#E4E4E4"/>
<path d="M478.754 146.695C478.817 145.443 478.606 144.193 478.133 143.032C477.661 141.871 476.941 140.827 476.022 139.975C475.103 139.123 474.009 138.483 472.817 138.1C471.624 137.717 470.362 137.6 469.12 137.758L409.199 87.7343L399.854 103.865L461.693 147.964C462.096 150.035 463.245 151.887 464.921 153.167C466.597 154.448 468.684 155.069 470.787 154.912C472.89 154.756 474.863 153.833 476.331 152.319C477.8 150.804 478.662 148.803 478.754 146.695Z" fill="#FFB6B6"/>
<path d="M420.293 95.3596L407.552 110.002C407.189 110.419 406.741 110.753 406.238 110.98C405.735 111.208 405.189 111.325 404.637 111.322C404.085 111.32 403.54 111.198 403.039 110.966C402.538 110.734 402.093 110.396 401.735 109.976L389.165 95.2634C387.045 93.3954 385.752 90.7624 385.569 87.9419C385.387 85.1214 386.329 82.3435 388.19 80.2173C390.051 78.0911 392.679 76.7901 395.497 76.5996C398.315 76.4091 401.094 77.3447 403.224 79.2012L419.466 89.5976C419.931 89.8954 420.327 90.29 420.626 90.7545C420.924 91.219 421.12 91.7425 421.198 92.2893C421.277 92.8361 421.236 93.3934 421.08 93.9232C420.924 94.4531 420.655 94.943 420.293 95.3596Z" fill="#E4E4E4"/>
<path d="M484.843 167.847H461.171V159.587C461.171 156.446 462.418 153.433 464.637 151.212C466.857 148.991 469.868 147.743 473.007 147.743C476.146 147.743 479.156 148.991 481.376 151.212C483.596 153.433 484.843 156.446 484.843 159.587L484.843 167.847ZM461.695 167.322H484.318V159.587C484.318 156.585 483.127 153.706 481.005 151.583C478.884 149.46 476.007 148.267 473.007 148.267C470.006 148.267 467.129 149.46 465.008 151.583C462.886 153.706 461.695 156.585 461.695 159.587V167.322Z" fill="#3F3D56"/>
<path d="M496.547 166.71V163.482L436.347 165.097L434.442 246.863L443.351 257.876L496.547 166.71Z" fill="#3F3D56"/>
<path d="M507.204 165.574L441.954 167.06L443.351 257.876L506.321 251.085L507.204 165.574Z" fill="#55495F"/>
<path d="M376.797 67.1379C390.892 67.1379 402.318 55.704 402.318 41.5996C402.318 27.4952 390.892 16.0614 376.797 16.0614C362.701 16.0614 351.275 27.4952 351.275 41.5996C351.275 55.704 362.701 67.1379 376.797 67.1379Z" fill="#FFB6B6"/>
<path d="M365.046 30.2176C373.875 38.8754 389.239 39.7052 398.948 32.0486C401.643 41.3487 401.938 51.1805 399.805 60.6256C397.673 70.0708 393.183 78.821 386.755 86.0588C392.156 88.0115 398.373 86.7268 403.2 83.6145C408.027 80.5022 411.602 75.7502 414.3 70.6775C420.978 58.1202 422.651 42.7871 417.926 29.371C413.201 15.9548 401.882 4.83004 388.13 1.22776C374.378 -2.37453 358.61 2.07519 349.422 12.9296C339.814 24.2798 338.258 40.9109 342.468 55.1765C346.678 69.4421 355.913 81.693 366.059 92.5641C361.185 80.0245 357.954 66.9066 356.444 53.5371C355.928 48.9584 355.626 44.2386 356.919 39.8161C358.212 35.3936 361.393 31.2743 365.827 30.0317" fill="#2F2E41"/>
<path d="M519.203 434.25H215.337C215.126 434.25 214.923 434.166 214.774 434.016C214.624 433.867 214.54 433.664 214.54 433.452C214.54 433.24 214.624 433.037 214.774 432.888C214.923 432.738 215.126 432.654 215.337 432.654H519.203C519.414 432.654 519.617 432.738 519.766 432.888C519.916 433.037 520 433.24 520 433.452C520 433.664 519.916 433.867 519.766 434.016C519.617 434.166 519.414 434.25 519.203 434.25Z" fill="#CACACA"/>
<path d="M472.082 364.97H448.41V356.71C448.41 353.569 449.657 350.556 451.877 348.335C454.096 346.114 457.107 344.866 460.246 344.866C463.385 344.866 466.395 346.114 468.615 348.335C470.835 350.556 472.082 353.569 472.082 356.71L472.082 364.97ZM448.934 364.446H471.558V356.71C471.558 353.708 470.366 350.829 468.245 348.706C466.123 346.583 463.246 345.391 460.246 345.391C457.246 345.391 454.369 346.583 452.247 348.706C450.126 350.829 448.934 353.708 448.934 356.71V364.446Z" fill="#CACACA"/>
<path d="M483.787 363.834V360.606L423.586 362.22L421.681 443.986L430.59 455L483.787 363.834Z" fill="#CACACA"/>
<path d="M494.444 362.697L429.193 364.183L430.59 455L493.561 448.208L494.444 362.697Z" fill="#E4E4E4"/>
</g>
<defs>
<clipPath id="clip0">
<rect width="520" height="455" fill="white"/>
</clipPath>
</defs>
</svg>
