<svg width="50" height="47" viewBox="0 0 50 47" fill="none" xmlns="http://www.w3.org/2000/svg">
<path d="M24.9999 46.6667L21.3748 43.3598C8.50113 31.4082 0.00208998 23.651 0.00208998 13.9878C-0.0297933 12.1493 0.303402 10.323 0.982001 8.61701C1.6606 6.91101 2.67082 5.35999 3.95279 4.05582C5.23476 2.75164 6.76246 1.72079 8.44546 1.02428C10.1285 0.32778 11.9325 -0.020198 13.7509 0.000905478C15.8969 0.0124461 18.0146 0.496128 19.9572 1.41838C21.8997 2.34063 23.6205 3.67935 25 5.34159C26.3795 3.67934 28.1002 2.34058 30.0428 1.41833C31.9853 0.496077 34.1031 0.0124193 36.2491 0.000905478C38.0674 -0.0201936 39.8716 0.327827 41.5545 1.02433C43.2375 1.72084 44.7652 2.75164 46.0472 4.05582C47.3292 5.35999 48.3394 6.91101 49.018 8.61701C49.6966 10.323 50.0298 12.1493 49.9979 13.9878C49.9979 23.651 41.4987 31.4083 28.6252 43.3598L24.9999 46.6667Z" fill="#FFB326"/>
</svg>
