<svg width="18" height="18" viewBox="0 0 18 18" fill="none" xmlns="http://www.w3.org/2000/svg">
<path d="M7.00006 13.9922C8.70549 13.9922 10.2559 13.3876 11.4652 12.3643L16.8915 17.7907C17.0156 17.9147 17.1706 17.9767 17.3411 17.9767C17.5117 17.9767 17.6667 17.9147 17.7908 17.7907C18.0388 17.5426 18.0388 17.1395 17.7908 16.8915L12.3644 11.4651C13.3722 10.2558 13.9923 8.68992 13.9923 7C13.9923 3.13953 10.8605 0.00775146 7.00006 0.00775146C3.1551 0.00775146 0.0078125 3.15504 0.0078125 7C0.0078125 10.8605 3.1551 13.9922 7.00006 13.9922ZM7.00006 1.27907C10.1629 1.27907 12.721 3.85271 12.721 7C12.721 10.1628 10.1629 12.7209 7.00006 12.7209C3.83727 12.7209 1.27913 10.1473 1.27913 7C1.27913 3.85271 3.85277 1.27907 7.00006 1.27907Z" fill="#C4C4C4"/>
</svg>
