<svg width="144" height="45" viewBox="0 0 144 45" fill="none" xmlns="http://www.w3.org/2000/svg">
<g filter="url(#filter0_d)">
<path d="M31.072 36.2C28.928 36.2 27.232 35.64 25.984 34.52C24.736 33.4 23.216 31.16 21.424 27.8L19.408 24.056C17.232 26.648 16.144 28.984 16.144 31.064C16.144 32.088 16.288 32.968 16.576 33.704C14.144 35.368 11.776 36.2 9.472 36.2C7.776 36.2 6.512 35.768 5.68 34.904C4.88 34.04 4.48 32.968 4.48 31.688C4.48 27.88 8.304 23.176 15.952 17.576L11.68 9.512C10.016 6.312 8.064 4.344 5.824 3.608C8 1.336 10.576 0.199999 13.552 0.199999C15.696 0.199999 17.392 0.759998 18.64 1.88C19.888 3 21.408 5.24 23.2 8.6L25.168 12.344C27.408 9.784 28.528 7.448 28.528 5.336C28.528 4.376 28.368 3.496 28.048 2.696C30.512 1.032 32.896 0.199999 35.2 0.199999C36.896 0.199999 38.144 0.631999 38.944 1.496C39.776 2.36 40.192 3.432 40.192 4.712C40.192 8.744 36.384 13.544 28.768 19.112L32.944 26.888C34.608 30.088 36.56 32.056 38.8 32.792C36.624 35.064 34.048 36.2 31.072 36.2ZM53.4891 24.488C53.2971 25.64 53.2011 26.52 53.2011 27.128C53.2011 30.232 53.6811 32.552 54.6411 34.088C52.7211 35.528 50.7211 36.248 48.6411 36.248C46.5611 36.248 45.0731 35.656 44.1771 34.472C43.2811 33.256 42.8331 31.464 42.8331 29.096C42.8331 26.696 43.8411 19.928 45.8571 8.792L43.3131 3.656C46.9291 1.32 50.2251 0.151999 53.2011 0.151999C54.0331 0.151999 54.9451 0.311999 55.9371 0.631999C56.9291 0.919999 57.6331 1.256 58.0491 1.64C60.4171 0.711998 62.6091 0.247998 64.6251 0.247998C67.6331 0.247998 70.0011 1.304 71.7291 3.416C73.4891 5.496 74.3691 8.024 74.3691 11C74.3691 14.584 73.0731 17.784 70.4811 20.6C69.2331 21.976 67.5531 23.08 65.4411 23.912C63.3291 24.744 61.1691 25.16 58.9611 25.16C56.7851 25.16 54.9611 24.936 53.4891 24.488ZM54.4011 19.016C54.8491 19.112 55.3131 19.16 55.7931 19.16C57.8411 19.16 59.6651 18.44 61.2651 17C62.8651 15.56 63.6651 13.784 63.6651 11.672C63.6651 10.2 63.2331 8.952 62.3691 7.928C61.5371 6.904 60.3531 6.392 58.8171 6.392C58.1771 6.392 57.4411 6.52 56.6091 6.776C55.9691 11.16 55.2331 15.24 54.4011 19.016ZM74.9834 8.504C74.9834 5.912 75.6554 3.96 76.9994 2.648C78.3434 1.336 79.9434 0.679998 81.7994 0.679998C83.6874 0.679998 86.2474 0.999998 89.4794 1.64C92.7114 2.28 95.1434 2.616 96.7754 2.648C99.4954 2.136 102.087 1.512 104.551 0.775997C104.807 1.608 104.935 2.648 104.935 3.896C104.935 6.488 104.183 8.44 102.679 9.752C101.207 11.064 99.3194 11.72 97.0154 11.72C96.4394 11.72 95.6714 11.688 94.7114 11.624C92.9514 20.872 92.0714 26.04 92.0714 27.128C92.0714 30.232 92.5514 32.552 93.5114 34.088C91.5914 35.528 89.5914 36.248 87.5114 36.248C85.4314 36.248 83.9434 35.656 83.0474 34.472C82.1514 33.256 81.7034 31.464 81.7034 29.096C81.7034 26.696 82.6314 20.328 84.4874 9.992C80.8714 10.472 77.8314 11.016 75.3674 11.624C75.1114 10.824 74.9834 9.784 74.9834 8.504ZM104.106 20.312C104.106 14.232 105.802 9.368 109.194 5.72C112.586 2.04 117.226 0.199999 123.114 0.199999C125.002 0.199999 126.346 0.583999 127.146 1.352C127.978 2.088 128.394 3.24 128.394 4.808C128.394 5.032 128.362 5.464 128.298 6.104C129.482 5.144 130.794 4.664 132.234 4.664C134.186 4.664 135.85 5.544 137.226 7.304C138.634 9.032 139.338 11.544 139.338 14.84C139.338 18.136 138.81 21.16 137.754 23.912C136.698 26.664 135.29 28.92 133.53 30.68C131.802 32.44 129.818 33.8 127.578 34.76C125.37 35.72 123.082 36.2 120.714 36.2C115.594 36.2 111.546 34.744 108.57 31.832C105.594 28.888 104.106 25.048 104.106 20.312ZM128.058 22.568C126.01 20.072 124.986 17.384 124.986 14.504C124.986 11.624 125.626 9.304 126.906 7.544C126.33 7.448 125.754 7.4 125.178 7.4C122.906 7.4 120.938 8.088 119.274 9.464C116.138 12.024 114.57 15.576 114.57 20.12C114.57 22.712 115.146 24.872 116.298 26.6C117.45 28.328 119.05 29.192 121.098 29.192C122.666 29.192 124.09 28.584 125.37 27.368C126.682 26.12 127.578 24.52 128.058 22.568Z" fill="#FFF7EA"/>
</g>
<defs>
<filter id="filter0_d" x="0.47998" y="0.152008" width="142.858" height="44.096" filterUnits="userSpaceOnUse" color-interpolation-filters="sRGB">
<feFlood flood-opacity="0" result="BackgroundImageFix"/>
<feColorMatrix in="SourceAlpha" type="matrix" values="0 0 0 0 0 0 0 0 0 0 0 0 0 0 0 0 0 0 127 0" result="hardAlpha"/>
<feOffset dy="4"/>
<feGaussianBlur stdDeviation="2"/>
<feComposite in2="hardAlpha" operator="out"/>
<feColorMatrix type="matrix" values="0 0 0 0 0 0 0 0 0 0 0 0 0 0 0 0 0 0 0.25 0"/>
<feBlend mode="normal" in2="BackgroundImageFix" result="effect1_dropShadow"/>
<feBlend mode="normal" in="SourceGraphic" in2="effect1_dropShadow" result="shape"/>
</filter>
</defs>
</svg>
